<svg id="XMLID_4032_" xmlns="http://www.w3.org/2000/svg" width="150.753" height="27.867" viewBox="0 0 150.753 27.867">
  <g id="XMLID_4102_" transform="translate(0 2.341)">
    <path id="XMLID_4112_" d="M65.042,252a9.5,9.5,0,0,1,6.876,2.508,9.657,9.657,0,0,1,0,13.207,9.511,9.511,0,0,1-6.876,2.525H58.2V252Zm-.154,14.333a5.311,5.311,0,0,0,3.89-1.433,5.623,5.623,0,0,0,0-7.576,5.311,5.311,0,0,0-3.89-1.433H62.466v10.443Z" transform="translate(-58.2 -252)"/>
    <path id="XMLID_4109_" d="M173.882,270.224,172.67,266.9h-7.286l-1.212,3.327H159.6L166.818,252h4.368l7.235,18.223Zm-4.863-13.156-2.2,5.989h4.419Z" transform="translate(-142.298 -252)"/>
    <path id="XMLID_4107_" d="M283,270.224V252h4.266v18.223Z" transform="translate(-244.642 -252)"/>
    <path id="XMLID_4105_" d="M342.5,270.224H329.7V252h4.266v14.316H342.5Z" transform="translate(-283.374 -252)"/>
    <path id="XMLID_4103_" d="M407.64,270.224h-4.334v-5.665L396.6,252h4.658l4.266,8,4.215-8H414.5l-6.842,12.524v5.7Z" transform="translate(-338.858 -252)"/>
  </g>
  <g id="XMLID_4094_" transform="translate(95.247 1.931)">
    <path id="XMLID_4100_" d="M627.44,270.224h-4.334v-5.665L616.4,252h4.658l4.266,8,4.214-8H634.3l-6.842,12.524v5.7Z" transform="translate(-616.4 -251.59)"/>
    <path id="XMLID_4097_" d="M739.984,252.381a9.861,9.861,0,0,1,0,13.514,9.148,9.148,0,0,1-13.1,0,9.861,9.861,0,0,1,0-13.514,8.807,8.807,0,0,1,6.552-2.781A8.693,8.693,0,0,1,739.984,252.381Zm-3,10.613a5.411,5.411,0,0,0,1.416-3.856,5.6,5.6,0,0,0-1.416-3.89,4.833,4.833,0,0,0-7.1,0,6.005,6.005,0,0,0,0,7.747,4.869,4.869,0,0,0,7.1,0Z" transform="translate(-705.806 -249.6)"/>
    <path id="XMLID_4095_" d="M866.11,262.016a9.1,9.1,0,0,1-2.1,6.279,7.1,7.1,0,0,1-5.563,2.355,7.362,7.362,0,0,1-5.7-2.355,8.932,8.932,0,0,1-2.15-6.279V252h4.266v10.016a4.974,4.974,0,0,0,.99,3.276,3.191,3.191,0,0,0,2.611,1.211,2.956,2.956,0,0,0,2.474-1.211,5.265,5.265,0,0,0,.938-3.276V252h4.266v10.016Z" transform="translate(-810.638 -251.59)"/>
  </g>
  <g id="XMLID_4033_" transform="translate(77.433)">
    <path id="XMLID_4068_" d="M532.118,260.859c-1.365.461-2.8-.017-4.232.341a3.155,3.155,0,0,1-.392.017c-1.519-.137-3.191.341-4.624.307-.2-.017-.392,0-.546,0a.823.823,0,0,1-.358,0,.738.738,0,0,1-.392.017.49.49,0,0,1-.2.034h-.392c.017.034-.137.034-.512.051,0,.017-.085.017-.239.017a1.942,1.942,0,0,1-.393.034,1.4,1.4,0,0,0-.358.017h-.29c-.171.017-.324.017-.461.034h-.341c-.153.017-.29.017-.461.034-.085,0-.239.017-.444.017-.085.017-.222.017-.427.034-.085,0-.222.017-.427.034-.1,0-.239.017-.41.017a3.878,3.878,0,0,0-.427.017h-.6c-.41,0-.819-.017-1.246-.034a.481.481,0,0,1-.256-.068.8.8,0,0,1-.256-.273,1.647,1.647,0,0,1-.1-.8c.017-.392.051-.836.119-1.348v-.119a.185.185,0,0,0,.017-.085,5.378,5.378,0,0,0-1.075-.375.409.409,0,0,1-.2-.119.666.666,0,0,1-.136-.171.453.453,0,0,1-.051-.171.316.316,0,0,1,.034-.119c.017-.034.051-.051.068-.085.017,0,.017,0,.034-.017a18.236,18.236,0,0,0,2.355-2.9c.171-.256.358-.512.546-.768q2.534-3.43,4.675-6.962a22.524,22.524,0,0,0,1.74-3.532,6.441,6.441,0,0,0,.358-1.5,1.488,1.488,0,0,0,.017-.239.247.247,0,0,0-.034-.119c0-.017,0-.017-.017-.034a.06.06,0,0,1-.017-.034v-.017h-.017a.543.543,0,0,0-.119-.068,1.541,1.541,0,0,0-.29-.085,1.752,1.752,0,0,0-.427-.017h-.1a1.506,1.506,0,0,0-.358.051,4.765,4.765,0,0,0-2.013,1.109,6.8,6.8,0,0,0-1.6,2.013,6.262,6.262,0,0,0-.427,1.092,2.489,2.489,0,0,0-.085.9,2.163,2.163,0,0,1,.017.324,2.072,2.072,0,0,1-.051.392,6.429,6.429,0,0,1-1.092,1.894,2.482,2.482,0,0,0-.29.444c-.154.324-.307.495-.478.495a.67.67,0,0,1-.495-.273,4.76,4.76,0,0,1-1.024-1.638,5.55,5.55,0,0,1-.324-1.86,6.963,6.963,0,0,1,.853-3.191,11.481,11.481,0,0,1,3.908-4.215,6.186,6.186,0,0,1,2.355-.921,6.865,6.865,0,0,1,1.672-.154,4.962,4.962,0,0,1,1.826.392,3.006,3.006,0,0,1,1.109.921c.051.068.136.154.2.239a1.973,1.973,0,0,1,.495.8,8.214,8.214,0,0,1,.136,1.877c0,.017,0,.017-.017.034a.063.063,0,0,0-.017.051c0,.017.017.034.051.051a.414.414,0,0,0,.12.051c.051.017.085.034.085.051s-.017.034-.034.051a.372.372,0,0,1-.085.051c-.017.017-.051.017-.068.034a.037.037,0,0,0-.034.034,4.325,4.325,0,0,1-.085.7,2.477,2.477,0,0,0-.068.939.487.487,0,0,1-.034.273,1.713,1.713,0,0,1-.119.256,1.4,1.4,0,0,0-.119.222.811.811,0,0,0-.051.119c-.017.017-.034.051-.051.068a.128.128,0,0,0-.017.085,1.992,1.992,0,0,1-.444,1.416,2.149,2.149,0,0,0-.29.6,2.152,2.152,0,0,1-.273.563,1.123,1.123,0,0,0-.188.409,1.224,1.224,0,0,1-.273.461,1.126,1.126,0,0,0-.188.41,2.055,2.055,0,0,1-.119.29,1.294,1.294,0,0,1-.188.239.433.433,0,0,0-.153.222,1.444,1.444,0,0,0-.085.29,1.015,1.015,0,0,1-.085.324c-.017.017-.017.051-.034.085a.63.63,0,0,1-.12.239.373.373,0,0,1-.239.137.045.045,0,0,0-.051.051v.1a.1.1,0,0,1,.017.068c0,.017-.017.034-.034.051a.385.385,0,0,1-.12-.017c-.017,0-.017,0-.034-.017,0-.017-.017-.034-.017-.051s0-.017-.017-.034l-.017-.017a.054.054,0,0,0-.034.017c-.017.017-.051.051-.068.051a.32.32,0,0,0-.1.119.251.251,0,0,0,.017.188.851.851,0,0,1,.051.119c.017.017.017.051.034.051h-.085c-.051.017-.085.051-.085.085a.47.47,0,0,0-.017.154.335.335,0,0,1-.017.137.11.11,0,0,1-.085.085.441.441,0,0,1-.239-.034c.051.085.085.154.068.188a.306.306,0,0,1-.085.12l-.051.051c-.017.017-.017.051-.034.068a.389.389,0,0,1-.1.2.7.7,0,0,1-.188.119.465.465,0,0,0-.171.137,2.669,2.669,0,0,0-.563,1.041.914.914,0,0,1-.086.188.648.648,0,0,1-.153.222.966.966,0,0,1-.222.136.982.982,0,0,0-.324.256,4.062,4.062,0,0,0-.222.478,1.2,1.2,0,0,1-.188.392,1.025,1.025,0,0,1-.273.324c-.085.085-.154.188-.239.29a.368.368,0,0,1-.154.239.354.354,0,0,1-.273.137.288.288,0,0,0-.171.119c-.034.068-.068.137-.1.222a.531.531,0,0,1-.1.222l-.2.307a3.793,3.793,0,0,1-.239.307c-.017.017-.034.051-.051.051-.017.017-.017.051-.034.051a2.1,2.1,0,0,0,.341-.034,1.357,1.357,0,0,0,.341-.119.355.355,0,0,1,.222.034c.017,0,.034,0,.034.017.034,0,.034-.017.034-.017.034-.017.051-.034.034-.034l.051-.051c.051-.017.068,0,.051.017.154.119.273.171.324.136.051-.017.068-.017.017,0,.051-.017.051,0,0,.017.068-.034.068-.034.017-.034.051-.017.051-.051,0-.051q.077-.051,0-.1.077-.077,0-.1h0q.077,0,0,.051c.068.017.068.034.034.068.051.017.068.051.017.1.085-.034.136-.051.119-.017.1-.017.136-.034.1-.034q.179-.051.1-.154c.1-.051.119-.085.068-.068.1,0,.12.017.068.034.085,0,.1.017.051.034.085-.017.1,0,.034.017.085-.017.1,0,.034.017.085,0,.1-.017.034-.017.136-.154.188-.239.171-.273.136,0,.2.017.2.068.1.034.12.034.086.017q.153,0,.1-.051c.085,0,.12-.017.068-.051h.085c.068.034.2-.017.188-.051.068.017.478.034.427-.017.375.017.392.017.495-.034.119-.017.358-.085.222-.171.154.085.188.085.034.017.171.085.188.085.034-.017.17.068.273.119.119.068.8,0,1.638,0,2.491-.017.136,0,.29-.017.427-.017a18.582,18.582,0,0,1,4.829-.222h.512a.878.878,0,0,0,.461-.1.475.475,0,0,0,.393-.034c0,.017.068-.051.153-.137-.017,0,.017-.017.068-.051h.068c0,.034.034.068.085.085,0,.034.017.068.051.068,0,.034.034.051.051.034.051,0,.1-.051.154-.12.034-.034.068-.085.119-.1a.105.105,0,0,1,.119.034c.017.017.034.017.068.017a.129.129,0,0,0,.068-.017.063.063,0,0,1,.051-.017.129.129,0,0,1,.068.034c.017.017.034.068.068.119.017.034.017.068.034.068a.063.063,0,0,0,.051-.017l.051-.051.034-.034c.017-.017.017-.017.034-.017a.49.49,0,0,1,.222-.017.858.858,0,0,1,.2.034,2496.09,2496.09,0,0,1,.273.034.834.834,0,0,1,.205.017.324.324,0,0,1,.187.119.467.467,0,0,1,.034.222,4.348,4.348,0,0,1-.017.444c-.017.171-.017.307-.034.444a12.1,12.1,0,0,0-.1,1.809v.324c-.017.085-.017.171-.034.239a1.184,1.184,0,0,1-.034.222.786.786,0,0,1-.034.137c-.017.017-.017.034-.034.051l-.017.017a.017.017,0,0,1-.017-.017C532.493,260.893,532.322,260.842,532.118,260.859ZM517.938,240.4c.136-.085.273-.188.409-.29a4.021,4.021,0,0,1,.955-.529,9.091,9.091,0,0,1,1.263-.341,3.969,3.969,0,0,1,1.348-.017,3.226,3.226,0,0,1,1.314.546,2.916,2.916,0,0,1,.956,1.211,2.506,2.506,0,0,1,.154.853c.017.171.034.358.068.546a4.03,4.03,0,0,1-.171,1.809c-.017.051-.017.085-.034.137a13.3,13.3,0,0,1-.649,1.86,17.318,17.318,0,0,1-1.109,2.338c-.136.239-.239.478-.341.7l-.154.358a21.483,21.483,0,0,0,2.491-4.829,8.8,8.8,0,0,0,.392-1.6,5.032,5.032,0,0,0,.068-.887,4.224,4.224,0,0,0-.119-.99,3.46,3.46,0,0,0-1.126-1.775,3.641,3.641,0,0,0-1.706-.768,5.45,5.45,0,0,0-3.276.529,8.634,8.634,0,0,0-2.525,1.877,10.025,10.025,0,0,0-1.775,2.628,6.758,6.758,0,0,0-.665,3.225,3.1,3.1,0,0,0,.136-.358,1.038,1.038,0,0,0,.154-.392,10.036,10.036,0,0,1,.785-2.321,8.639,8.639,0,0,1,1.3-2.013A7.571,7.571,0,0,1,517.938,240.4Zm-2.645,16.824c-.051-.051-.085-.068-.12-.068s-.051.017-.068.051c.017.1.034.2.051.324a.426.426,0,0,0,.017.136h.154c.017-.051.034-.085.051-.136a.317.317,0,0,0,.034-.119A.3.3,0,0,0,515.293,257.225Zm.683,2.15a1.924,1.924,0,0,0,.307.051.609.609,0,0,0,.188-.068.285.285,0,0,1,.222-.051,1.265,1.265,0,0,0,.427-.085.715.715,0,0,1,.273-.068,3.067,3.067,0,0,1,.375-.034c.1-.017.2-.017.29-.034.051,0,.1,0,.119.034a.607.607,0,0,1,.1.017.277.277,0,0,0,.1-.051q.1-.128.154-.1c.085-.034.153-.051.188,0,.068-.034.119-.051.119-.017.136-.051.222-.068.256-.017.137-.068.2-.085.256-.017q.179-.128.256-.051c.188-.12.341-.154.478-.051.1-.1.188-.119.222-.068q.1-.2.1-.051a.46.46,0,0,0-.495-.051.521.521,0,0,0-.512-.034,2.9,2.9,0,0,0-.955-.034,6.206,6.206,0,0,0-.938.051c-.324.034-.648.068-.973.119-.1.1-.188.2-.273.29C516.181,259.153,516.078,259.255,515.976,259.375Zm15.067-.137a2.569,2.569,0,0,0-1.467-.358,4.812,4.812,0,0,0-.495.034,2.357,2.357,0,0,1-.461.137,4.6,4.6,0,0,1-.478.068,8.763,8.763,0,0,0-2.969.171l-.495.051a26.656,26.656,0,0,1-3.873.171.392.392,0,0,0-.307.017.325.325,0,0,0-.307,0,.4.4,0,0,0-.341,0,.913.913,0,0,0-.376-.017,1.319,1.319,0,0,0-.392-.1c0-.034-.034-.034-.068,0,0-.017-.034-.017-.068.017a.209.209,0,0,1-.051.034c0-.017-.034-.017-.068,0,0-.034-.017-.034-.034-.017,0-.034-.017-.034-.034-.034,0-.017,0-.017-.034,0,.017-.017,0,0-.017.051a.094.094,0,0,1-.068.1c-.034.017-.068-.017-.1-.085.017-.017,0-.034-.017-.017h-.034c.017,0,0,.017-.017.017a.3.3,0,0,1,.017.1c-.1.154-.2.239-.341.239a.437.437,0,0,1-.358,0h-.239a2.258,2.258,0,0,0-.256.085v-.068c.017,0,.017,0,.017-.017l.017-.017h.034v.017c.017,0,.017,0,.017-.017.017,0,.017-.017.017-.051a.6.6,0,0,0,.017-.1c-.017,0-.017.017-.034.017a.063.063,0,0,1-.051.017c-.017,0-.017.017-.034.017,0,.017-.017.034-.034.051,0,.034,0,.051-.017.051-.017.017-.017.017-.034.017,0,0-.017,0-.034-.034-.017-.017-.017-.068-.034-.119a.654.654,0,0,1-.017.222c0,.051-.017.068-.034.051a.769.769,0,0,1-.188.017.252.252,0,0,1-.119.017c-.051,0-.1.017-.154.017a1.292,1.292,0,0,0-.256.017h-.017a.062.062,0,0,0-.017.051v.085a.062.062,0,0,0,.017.051c0,.017.017.034.017.051s.017.017.034.017c.137-.017.29-.017.41-.034a1.733,1.733,0,0,0,.427-.034.547.547,0,0,0,.29-.034.783.783,0,0,0,.444-.051.186.186,0,0,0,.222-.051.219.219,0,0,0,.2-.068.3.3,0,0,0,.2.017c.085.085.153.085.222.017a.134.134,0,0,0,.188,0,.262.262,0,0,0,.392-.051,1.343,1.343,0,0,0,.392-.068c.051.034.086.034.1-.034a.1.1,0,0,0,.12-.017l.1.1c.017.051.017.017.017-.051.017.051.017.017,0-.034a.243.243,0,0,0,.222-.034c.017.051.512,0,.461-.051.051.051.171.051.307-.034,1.433-.068,2.764-.017,4.078-.051a3.838,3.838,0,0,0,.444-.017,2.788,2.788,0,0,0,.392.034,3.033,3.033,0,0,0,.393-.017,3.187,3.187,0,0,1,.8-.12c.136-.017.256-.051.392-.068a9.579,9.579,0,0,1,1.075-.154,3.9,3.9,0,0,1,.444-.034c.444-.051.887-.1,1.331-.188a3.518,3.518,0,0,1-1.587.307h-.426a1.776,1.776,0,0,0-.427,0l-.444.051a4.02,4.02,0,0,1-.955.137,2.4,2.4,0,0,1-.495,0,2.669,2.669,0,0,1-.512-.085c-.171.017-.358.034-.529.034-1.228.1-2.491.256-3.668.256a41.43,41.43,0,0,1,4.368,0h.495c.631,0,1.348-.478,2.031-.222.171.017.341.034.495.051a2.167,2.167,0,0,0,1.894-.461C530.8,259.221,530.923,259.221,531.043,259.238Zm-13.77-5.034a1.122,1.122,0,0,0-.034.119.062.062,0,0,1-.017.051.216.216,0,0,1,.1.017c.034.017.068.017.1.034a.062.062,0,0,0,.085-.034c.819-1.092,1.6-2.2,2.372-3.31.563-.836,1.109-1.672,1.638-2.525.051-.085.1-.171.136-.239.41-.7.8-1.416,1.16-2.15.2-.427.444-.836.666-1.263a1.712,1.712,0,0,0,.136-.546,2.08,2.08,0,0,1,.1-.444c.017-.017.017-.051.034-.068a1.807,1.807,0,0,0,.068-.171.241.241,0,0,0-.017-.188,1.768,1.768,0,0,1-.034-.341.32.32,0,0,1,.137-.29c.017-.017.034-.034.034-.051a.1.1,0,0,0-.017-.068v-.068a.3.3,0,0,1-.1.017c-.017-.068-.034-.119-.051-.171a4.443,4.443,0,0,0-.665-1.723,1.962,1.962,0,0,0-1.723-.785c.017-.017.017-.051.034-.068a.186.186,0,0,1,.085-.017c.017,0,.051.017.068.017a.242.242,0,0,0,.1.034c.034,0,.068-.051.119-.137h-.1a.64.64,0,0,1-.188-.017.216.216,0,0,0-.1.017c-.034.017-.068.017-.1.034a.329.329,0,0,1-.171.051c-.051,0-.1-.051-.153-.171-.051.2-.137.29-.239.29a3.888,3.888,0,0,0-.87.154c-.034.017-.085.017-.119.034a6.23,6.23,0,0,0-1.28.6h-.034l-.034.034a.063.063,0,0,0-.017.051.674.674,0,0,0,.034.1c0,.017.017.017.034.034.017,0,.051.017.068.017a.062.062,0,0,0,.051-.017,4.62,4.62,0,0,1,2.491-.751,2.44,2.44,0,0,1,1.86.785,2.1,2.1,0,0,1,.41.8,1.845,1.845,0,0,1-.017,1.007c-.034.137-.068.273-.1.427a4.536,4.536,0,0,1-.273.973q-.256.614-.461,1.28a6.411,6.411,0,0,1-.546,1.263,1.856,1.856,0,0,0-.136.324,2.522,2.522,0,0,1-.17.375.573.573,0,0,1-.307.256.185.185,0,0,1,.017.085.171.171,0,0,1,.017.068c-.136.239-.273.478-.409.7-.239.427-.512.853-.785,1.28a1.151,1.151,0,0,0-.12.188c-.512.8-1.024,1.6-1.57,2.372a.063.063,0,0,1-.051.017l-.017.017c0-.017,0-.017-.017-.034v-.068c.1-.171.188-.341.29-.529l-.068-.051c-.358.495-.7.99-1.058,1.467.1.068.154.085.188.051q.051-.025.051-.154l.034-.034c.017,0,.017-.017.034-.017h.051v.1Zm.068-.751v.051l.017.017a.217.217,0,0,0,.1.017h.171c-.017-.017-.017-.051-.034-.051a.306.306,0,0,1-.085-.12.063.063,0,0,0-.051.017A.426.426,0,0,1,517.341,253.454Zm.631,6.109a.063.063,0,0,1-.017-.051h-.017v.1c.017,0,.017,0,.017-.017v-.034Zm.853-7.917-.068.12.051.034.068-.137Zm.546-.785-.444.631.051.034.427-.631Zm.341-.444-.29.341.034.017.051-.051a.521.521,0,0,0,.136-.137.245.245,0,0,0,.034-.119A.061.061,0,0,0,519.713,250.416Zm.188,8.89c0-.085,0-.1-.017-.034.017-.085.017-.1,0-.017,0-.085,0-.068-.017.051.017-.068,0-.051-.017.051.017-.068.034-.068.017,0,.017-.068.034-.068.017,0,.017-.068.034-.068.017,0,.017-.068.017-.085,0-.017.017-.068.017-.1,0-.017Zm0-7.61a.063.063,0,0,1,.051.017H520c-.017-.017-.017-.017-.017-.034-.017-.017-.017-.034-.034-.034-.017-.017-.034-.017-.051-.034h-.034v.017A.088.088,0,0,1,519.9,251.7Zm.614,7.525c0-.1,0-.119-.017-.017.017-.1,0-.1-.017-.017,0-.12,0-.12-.034-.034.017-.1,0-.1-.017,0,0-.085,0-.068-.017.068.017-.085.034-.068.017.034.034-.051.051-.034.068.068.017-.1.017-.1,0-.034.017-.1.017-.119,0-.034C520.532,259.17,520.532,259.136,520.515,259.221Zm.034-1.587c.068.034.051.034-.034,0,.068.034.222.1.137.068.085.034.068.017-.017-.017q.128.026,0-.051C520.685,257.685,520.651,257.685,520.549,257.634Zm.41,2.269c.068.119.188.154.119.017.119-.034-.119-.034-.1-.034C521.061,260.006,521.044,260.023,520.958,259.9Zm.154-.034C521.2,259.989,521.2,260.04,521.112,259.869Zm.068-.717C521.265,259.016,521.265,259,521.18,259.153Zm.154-9.658a.374.374,0,0,1,.085-.068.454.454,0,0,0,.085-.1.188.188,0,0,0,0-.137c-.017.017-.051.017-.068.034a.593.593,0,0,0-.154.136c-.017,0-.017.017-.017.034s.017.034.051.068A.053.053,0,0,1,521.334,249.495Zm.034,10.374C521.47,259.989,521.487,260.04,521.368,259.869Zm.87-9.2-.068-.051-.2.41h.017c.017,0,.017,0,.034.017Zm8.634,8.975c.119-1.433-.12-1.433-.034-.051C530.821,259.6,530.838,259.613,530.872,259.648ZM522.357,247.5c0,.017,0,.017.017.034v.017c.017,0,.017,0,.034-.017a.129.129,0,0,0,.068-.034l-.017-.051c-.017-.017-.017-.051-.034-.085-.017.034-.017.068-.034.068C522.392,247.447,522.375,247.464,522.357,247.5Zm9.709,11.364C532.066,258.9,532.049,258.931,532.066,258.863ZM523.5,240.656h-.1v.051a.017.017,0,0,0,.017.017c.017.017.034.017.051.034h.017c.017-.017.017-.017.017-.034C523.5,240.69,523.5,240.673,523.5,240.656Z" transform="translate(-512 -238.281)" fill="#ffcf61"/>
    <path id="XMLID_4055_" d="M590,332.017a2.534,2.534,0,0,0-.051-.529l-.017-.119-.034-.1-.051-.2a2.37,2.37,0,0,0-.137-.341,4.265,4.265,0,0,0-.529-.938,6.057,6.057,0,0,0-1.058-1.041,8.879,8.879,0,0,0-1.092-.751,17.286,17.286,0,0,0-2.269-1.092,13.892,13.892,0,0,0-1.86-.6,9.219,9.219,0,0,0-.99-.188,4,4,0,0,0-1.109,0c-.051.017-.1.017-.154.034a1.75,1.75,0,0,1-.171.068l-.153.1a1.608,1.608,0,0,1-.171.171.45.45,0,0,0-.12.273,1.464,1.464,0,0,0-.034.392,3.16,3.16,0,0,0,.239.819c.051.1.085.2.119.29a3.036,3.036,0,0,0,.137.307c.034.068.051.119.068.154s0,.051,0,.051c0,.017.017.017.051.017a.334.334,0,0,0,.12-.017c.051-.017.1-.017.154-.034.051,0,.085-.017.136-.017.136-.017.273-.017.427-.034a3.854,3.854,0,0,1,1.246.1,2.765,2.765,0,0,0,.324.068c.068.017.137.017.2.034a1.621,1.621,0,0,1,.648.307.454.454,0,0,0,.2.051h.034a.06.06,0,0,1,.034.017l.034.034.051.051a.062.062,0,0,0,.051.017.312.312,0,0,1,.324.034v-.017h.017v.051a.128.128,0,0,1-.017.068c0,.034-.017.051-.017.068s0,.017.017,0a.059.059,0,0,0,.017-.034c0-.017.017-.017.017-.034.017-.017.017-.034.034-.051a.357.357,0,0,0,.1.068.566.566,0,0,1,.1.051.32.32,0,0,1,.068.154q.026.051.051.051h.188a.017.017,0,0,1,.017.017.305.305,0,0,0,.119.222.2.2,0,0,0,.171.034.068.068,0,0,1,.068.034c.017.017.051.034.068.068a.129.129,0,0,0,.119.068.228.228,0,0,1,.1.085c.017.017.034.034.051.034.017.017.034.017.051.034a.063.063,0,0,1,.051.017l.051.051a.236.236,0,0,1,.051.068.052.052,0,0,0,.068,0c.034-.017.051,0,.068.017a.576.576,0,0,1,.051.1c.017.034.017.051.034.085a.017.017,0,0,1,.017.017c0,.017.017.034.034.051a.063.063,0,0,0,.051.017c.017,0,.034-.017.068-.068h.017v.1c0,.017,0,.017.017.017a.212.212,0,0,0,.034-.051v-.068s.017-.017.017,0h.051a.017.017,0,0,1,.017.017.227.227,0,0,1-.017.085c0,.017-.017.051-.017.068v.034h.017a.063.063,0,0,0,.017-.051c.017,0,.034,0,.034.017v.068c0,.034,0,.051.017.068,0,.017.017.017.034,0a.431.431,0,0,0,.085-.119.186.186,0,0,0-.017.085v.034l.017.017h.017v.017c.017.034.017.051.051.051.017,0,.034-.017.068-.017.034-.017.051-.017.068,0,.051,0,.1.051.136.1a.852.852,0,0,1,.086.222c0,.034.017.034.051.034a.1.1,0,0,0,.068-.017h.068a.063.063,0,0,1,.051.017.421.421,0,0,1,.068.154.874.874,0,0,0,.051.119.094.094,0,0,0,.085.051c.017,0,.017.017.034.017a.063.063,0,0,1,.017.051l.034.034c.017.017.017.017.034.017s.034-.017.068-.034.051-.017.051,0v.1l.682.137c.017,0,.017,0,.034.017h.034c.017,0,.017,0,.034.017a1.393,1.393,0,0,1,.512.188,1.242,1.242,0,0,1,.307.529c.017.051.034.1.068.119a.126.126,0,0,0,.1.034.158.158,0,0,0,.154-.119,1.332,1.332,0,0,0,.085-.239C589.965,332.427,590,332.2,590,332.017ZM588.156,330h0l.017-.017a.062.062,0,0,1,.051-.017v.051a.037.037,0,0,0-.034.034l-.034.034c-.017.017-.034.017-.034.034A.246.246,0,0,1,588.156,330Zm-.529-.392.034.034-.017.034-.034-.034Zm-.222-.154.171.136-.017.034-.188-.136Zm-.034-.034-.017.017s-.017.017-.017,0a.062.062,0,0,1-.051-.017.017.017,0,0,1-.017-.017,6.755,6.755,0,0,1-.034-.034Zm-3.617-.6q-.717-.281-1.433-.512a5.373,5.373,0,0,0-1.451-.307c.017-.017.017-.034.034-.051a.293.293,0,0,1,.068-.085.091.091,0,0,1,.068-.051,1.7,1.7,0,0,1,.921.085c.085.017.171.051.256.068.1.017.222.017.324.034a1.88,1.88,0,0,1,.307.034.917.917,0,0,1,.188.085.4.4,0,0,0,.188.1,1.609,1.609,0,0,1,.393.171.922.922,0,0,0,.222.119,2.071,2.071,0,0,1,.29.119c.1.034.2.085.324.136a.244.244,0,0,0,.1.034.216.216,0,0,1,.1.017.171.171,0,0,1,.085.068.518.518,0,0,0,.29.222.43.43,0,0,1,.119.068.577.577,0,0,0,.2.1,1.72,1.72,0,0,1,.239.136,1.846,1.846,0,0,0,.239.154,3.9,3.9,0,0,0,.341.222.8.8,0,0,1,.171.171.17.17,0,0,0,.085.068A25.24,25.24,0,0,0,583.754,328.826Zm.665-.461h0l.017-.017c0,.017,0,.017.017.034v.017a2.979,2.979,0,0,1-.034.034Zm1.706.973h0c-.017.017-.034.017-.034.034v-.085h.034l.017.017-.017.034Zm.341,1.365-.1-.051.034-.068.085.1C586.467,330.686,586.467,330.686,586.467,330.7Zm.068-1.075h.017a.13.13,0,0,1,.068-.034v.1h-.034s-.017.017-.017,0a.017.017,0,0,1-.017-.017C586.535,329.68,586.535,329.663,586.535,329.628Zm.7.41a.063.063,0,0,1-.017.051l-.017.017a.053.053,0,0,0-.017.034v-.051c.034-.017.034-.034.051-.051Zm.99.409-.051.051c-.017.017-.017.017-.034,0a6.088,6.088,0,0,0-.921-.717,7.439,7.439,0,0,0-.785-.478,1.721,1.721,0,0,1-.256-.119,1.792,1.792,0,0,0-.734-.256.426.426,0,0,1-.119-.068.2.2,0,0,0-.119-.085h-.085c-.017,0-.017-.017-.034-.051a.1.1,0,0,0-.051-.1c-.034-.017-.068-.017-.1.034a.017.017,0,1,1-.034,0,.017.017,0,0,0-.017-.017v-.017a.084.084,0,0,0,.017-.051.75.75,0,0,0-.273-.29,1.808,1.808,0,0,0-.324-.119,1.125,1.125,0,0,1-.444-.188v.051a.017.017,0,0,0,.017.017h.034a.059.059,0,0,1,.017.034.227.227,0,0,1-.017.085.017.017,0,0,1-.017-.017c-.017-.017-.034-.017-.051-.034a.017.017,0,0,1-.017-.017c0-.017-.017-.017-.017-.051,0-.017-.017-.034-.017-.051s-.017-.017-.034,0a.183.183,0,0,0-.051.085.653.653,0,0,0,.017-.154c0-.034-.017-.051-.034-.034a.834.834,0,0,1-.188-.068l-.1-.051a1.51,1.51,0,0,0-.256-.085.4.4,0,0,0-.136-.034h-.034v-.034a.128.128,0,0,1,.017-.068c0-.017,0-.034.017-.034l.017-.017.017-.017c.256.085.529.171.785.273.051.017.085.034.136.051a3.2,3.2,0,0,1,.512.2c.068.034.136.085.2.119a.8.8,0,0,0,.375.154.856.856,0,0,1,.222.085c.051.017.119.051.171.068a.8.8,0,0,1,.341.2,1.466,1.466,0,0,0,.341.222.3.3,0,0,1,.085.068.357.357,0,0,0,.1.068.15.15,0,0,0,.136-.034v.068a.6.6,0,0,0,.137.085c.017.017.051.034.068.051.136.085.29.171.427.273.222.154.443.324.665.495h.017l.017-.017v-.051a.721.721,0,0,0-.085-.119l-.034-.034.017-.051a4.166,4.166,0,0,1,.427.341c-.017.034-.034.068-.051.068-.017.017-.017.017-.034,0,0-.017-.017-.017-.017-.051h-.017s-.017.017-.017,0v.068l.034.034a2.171,2.171,0,0,0,.222.188c0,.017,0,.017.017.034v.017C588.242,330.4,588.224,330.413,588.224,330.447Z" transform="translate(-568.397 -311.095)" fill="#ffcf61"/>
    <g id="XMLID_4034_" transform="translate(11.006 20.701)">
      <path id="XMLID_4054_" d="M590.39,389.734c-.017-.017-.017-.034-.034-.034l-.256.1v.051h0l.29-.119Z" transform="translate(-587.779 -384.564)" fill="#ffcf61"/>
      <path id="XMLID_4053_" d="M578.839,386.134a.017.017,0,0,0,.017-.017l.017-.017c-.1.034-.188.068-.273.1h.034c.017-.017.051-.017.068-.034A.525.525,0,0,1,578.839,386.134Z" transform="translate(-578.242 -381.578)" fill="#ffcf61"/>
      <path id="XMLID_4042_" d="M587.27,360.317a1.72,1.72,0,0,0-.512-.546,1.814,1.814,0,0,1-.187-.154l-.7-.017c-.051.051-.12.1-.171.154-.171.171-.358.324-.563.495a.3.3,0,0,1-.085.068,10.849,10.849,0,0,1-1.45,1.058c-.153.1-.324.2-.478.307-.051.034-.1.068-.171.119a4.054,4.054,0,0,1-.87.41,1.014,1.014,0,0,0-.256.154c-.017,0-.017.017-.034.017a.15.15,0,0,1-.12.017c-.017,0-.051.017-.068.017a.129.129,0,0,0-.068.034.679.679,0,0,1-.358.273.017.017,0,0,1-.017.017v.017h-.017l-.017-.017c0-.017-.017-.034-.017-.068a.063.063,0,0,1-.017-.051h-.017v.137l-.154.051a.518.518,0,0,1-.137.068.309.309,0,0,1-.171-.017.077.077,0,0,0-.085,0c-.017.017-.051.034-.068.068l-.051.051c-.017,0-.017.017-.034.034l-.017.017h-.034a.341.341,0,0,0-.256-.017.71.71,0,0,0-.2.136.575.575,0,0,1-.2.1.838.838,0,0,0-.188.068.194.194,0,0,1-.137.051.32.32,0,0,0-.153.068.276.276,0,0,1-.154.051.128.128,0,0,0-.085.017.3.3,0,0,0-.085.068h0a.147.147,0,0,0-.1.051h-.085a.215.215,0,0,1-.1-.017c-.017,0-.017.017-.034,0a.154.154,0,0,0-.086.017c-.034.017-.051.051-.051.119,0,.017,0,.017-.017.017s-.017-.017-.034-.017l-.017-.017h-.017v.068a.053.053,0,0,0,.017.034c.017.017.017.017.017.034h0c.034-.017.085-.034.119-.051,0,.017-.017.017-.017.034a.045.045,0,0,1-.051.051h-.1c0,.017-.017.017-.034.034h-.034l-.034-.034c.017,0,.017,0,.034-.017h-.034l-.017-.017c-.017-.017-.017-.034-.034-.051,0-.017-.017-.034-.017-.051v.051a.037.037,0,0,1-.034.034c-.017,0-.034-.017-.051-.034a.063.063,0,0,0-.051-.017c-.017,0-.017.017-.034.034v.119h-.017a.249.249,0,0,1-.034-.051c-.017-.017-.017-.017-.034-.017s-.017.017-.017.034l-.017.017H577.8c-.034-.017-.051-.017-.068,0a.378.378,0,0,0-.051.085c-.017.034-.017.051-.034.068.034-.017.085-.034.12-.051a.059.059,0,0,0-.034.017l-.1.051c-.017,0-.017,0-.034.017a.3.3,0,0,1-.171.068h-.034a.862.862,0,0,0-.273.154c-.017.017-.017.068-.017.154a1.455,1.455,0,0,0,.017.273c.017.1.034.188.051.273a3.384,3.384,0,0,1,.068,1.348.23.23,0,0,0,0,.154,1.1,1.1,0,0,0,.034.119.366.366,0,0,0,.051.085.063.063,0,0,0,.051.017c.017,0,.017-.017.034-.017a.017.017,0,0,0,.017-.017,4.528,4.528,0,0,1,1.195-.461c.154-.051.307-.085.461-.136.99-.358-.341.154.6-.307.955-.444,1.894-.921,2.832-1.4.734-.375,1.467-.785,2.2-1.211a14.623,14.623,0,0,0,2.2-1.57,2.217,2.217,0,0,0,.256-.29,1.673,1.673,0,0,0,.188-.427A.745.745,0,0,0,587.27,360.317ZM577.954,364Zm.2,1.314c0,.017-.017.017-.034.017l-.1-.1c-.017-.017-.017-.034-.034-.051v-.017c0-.034.017-.051.017-.085a.032.032,0,0,0,.051,0c.017,0,.017,0,.034.017.017,0,.017.017.034.034s.017.051.034.085Zm1.092-1.792c-.017.017-.034.034-.051.034h-.068A.541.541,0,0,0,579.25,363.525Zm-.768.273h0v-.034h0l.136-.068.017.068Zm5.443-1.194h0c-.29.171-.563.324-.853.478a.513.513,0,0,0-.137.068c-.085.051-.171.1-.273.154-.188.1-.359.188-.546.29-.1.034-.188.068-.273.1a1.4,1.4,0,0,0-.478.239,1.016,1.016,0,0,1-.256.154,1.414,1.414,0,0,0-.222.119,1.405,1.405,0,0,1-.461.2,2.615,2.615,0,0,0-.461.188.434.434,0,0,1-.119.034,1.143,1.143,0,0,0-.137.051.368.368,0,0,0-.1.119l.444-.171-.017.017h-.017v.034l.034.034c.051-.017.119-.017.171-.034h0c.017-.017.051-.017.068-.034v-.017h.051c.017,0,.034-.017.068-.017h0l.256-.119v.017c.034-.017.051-.017.034-.017v.017l-.17.068-.119.051v-.017l-.051.017v.017h-.051l-.034.017.017.051-.2.1c-.137.051-.273.119-.392.171v-.1l-.068.017c0,.017.017.034.017.051a.059.059,0,0,0,.017.034l-.017.017c0,.017-.017.034-.034.051h0a.017.017,0,0,0-.017-.017v-.085a.13.13,0,0,1,.017-.068l-.444.154a5.958,5.958,0,0,1-.7.256c.017-.017.034-.034.051-.034s.034-.017.051,0h.017l.6-.222c.136-.051.29-.119.443-.171v-.034c0,.017,0,.017.017.017.017-.017.051-.017.068-.034,0-.017,0-.034.017-.034s.017,0,.034.017h0a.017.017,0,0,0,.017-.017v-.017l.017-.017a.017.017,0,0,0-.017-.017l-.017-.017h-.017l-.392.154c-.017,0-.017.017-.034,0l-.017-.017-.58.222.563-.256h.017v-.085c0-.017,0-.034.017-.034.409-.171.819-.358,1.229-.546.034-.017.068-.017.1-.034.1-.051-2.1.8-2.013.768.273-.119.529-.239.785-.375.119-.051.239-.119.358-.171a4.37,4.37,0,0,0,.665-.375v-.034a.017.017,0,0,1,.017.017c.068-.051.119-.085.188-.136a.509.509,0,0,1,.171-.068.276.276,0,0,0,.154-.051c.017,0,.017-.017.034-.034s.034-.034.051-.034a.032.032,0,0,1,.051,0,.146.146,0,0,0,.119,0,.093.093,0,0,0,.068-.1c0-.017,0-.017.017-.034h.051v.068a1.345,1.345,0,0,0,.836-.29,2.837,2.837,0,0,1,.563-.273v-.017h-.017v-.017h-.034c-.017,0-.017,0-.017.017l-.017.017h-.034a.234.234,0,0,1-.051-.068c.017,0,.017-.017.034,0a.13.13,0,0,0,.068-.034h.034c.017,0,.034.017.051.017a.063.063,0,0,0,.051.017c.017,0,.034,0,.034-.034a.255.255,0,0,0,0-.12c.034.051.051.1.068.12a.052.052,0,0,0,.068,0c.068-.034.137-.085.2-.12a.339.339,0,0,0,.137-.068l.478-.256.017-.017.017-.017a.017.017,0,0,1,.017.017c.017.017.017.017.017.051v.034C583.943,362.569,583.943,362.586,583.926,362.6Zm-4.931,1.877c.017,0,.017-.017.034-.034s.034-.017.034-.034a.063.063,0,0,1,.051.017.059.059,0,0,1-.017.034.376.376,0,0,1-.051.085l-.034-.034C579.011,364.5,579.011,364.5,578.995,364.48Zm.717-.273a.017.017,0,0,1,.017-.017v-.017a.017.017,0,0,1,.017-.017l.017.017.034.034c-.017,0-.017.017-.034.017l-.017.017c0-.017-.017-.017-.034-.034Zm2.269-.99a.053.053,0,0,1,.017-.034l.034.034v.017a.017.017,0,0,1-.017.017c0-.017-.017-.017-.034-.034Zm4.01-2.8a.384.384,0,0,1-.085.188,3.972,3.972,0,0,1-1.041.734c-.119.068-.222.136-.341.2a3.721,3.721,0,0,0-.375.256,2.432,2.432,0,0,1-.341.239.912.912,0,0,1-.239.1.891.891,0,0,0-.273.1,1.728,1.728,0,0,1-.512.222c-.1.034-.2.085-.29.119-.136.068-.273.136-.409.222-.12.068-.256.119-.375.188a.3.3,0,0,0-.12.085.4.4,0,0,1-.239.12.789.789,0,0,0-.427.136c-.051.034-.1.051-.153.085-.171.068-.358.153-.529.222a.129.129,0,0,1-.085.034c-.1.034-.188.068-.29.1-.171.068-.341.136-.529.222a.6.6,0,0,1-.29.068.333.333,0,0,1-.119.017c1.126-.6,2.269-1.194,3.43-1.775.017,0,.034-.017.051-.017.6-.307,1.211-.631,1.809-.956a14.14,14.14,0,0,0,1.757-1.058C586.007,360.351,586.007,360.385,585.99,360.419Z" transform="translate(-576.998 -359.6)" fill="#ffcf61"/>
      <path id="XMLID_4041_" d="M583.768,384.634l.017-.017a.017.017,0,0,0,.017-.017c-.034.017-.068.017-.1.034Z" transform="translate(-582.471 -380.334)" fill="#ffcf61"/>
      <path id="XMLID_4040_" d="M576.654,386.7a.094.094,0,0,0-.085.034.379.379,0,0,0-.068.085,3.417,3.417,0,0,0,.358-.12h-.2Z" transform="translate(-576.5 -382.076)" fill="#ffcf61"/>
      <path id="XMLID_4039_" d="M596.717,385.151h0c.017-.017,0-.034,0-.051h0l-.017.017v.017A.017.017,0,0,1,596.717,385.151Z" transform="translate(-593.253 -380.749)" fill="#ffcf61"/>
      <path id="XMLID_4038_" d="M592.451,389.222h0c-.017,0-.034.017-.051.017h0l.6-.222V389h-.034a3.566,3.566,0,0,1-.512.222Z" transform="translate(-589.687 -383.983)" fill="#ffcf61"/>
      <path id="XMLID_4037_" d="M596.919,388.268l.136-.051V388.2q-.077.026-.256.1v.017Z" transform="translate(-593.336 -383.32)" fill="#ffcf61"/>
      <path id="XMLID_4036_" d="M596.234,388.917V388.9h0a.059.059,0,0,0-.034.017v.017Z" transform="translate(-592.839 -383.901)" fill="#ffcf61"/>
      <path id="XMLID_4035_" d="M591.9,390.6Z" transform="translate(-589.272 -385.31)" fill="#ffcf61"/>
    </g>
  </g>
</svg>
