<svg id="XMLID_4032_" xmlns="http://www.w3.org/2000/svg" width="135.242" height="25" viewBox="0 0 135.242 25">
    <g id="XMLID_4102_" transform="translate(0 2.1)">
        <path id="XMLID_4112_" d="M64.338,252a8.522,8.522,0,0,1,6.169,2.25,8.663,8.663,0,0,1,0,11.848,8.532,8.532,0,0,1-6.169,2.265H58.2V252ZM64.2,264.858a4.764,4.764,0,0,0,3.49-1.286,5.044,5.044,0,0,0,0-6.8,4.764,4.764,0,0,0-3.49-1.286H62.027v9.368Z" transform="translate(-58.2 -252)"/>
        <path id="XMLID_4109_" d="M172.412,268.348l-1.087-2.985h-6.536l-1.087,2.985h-4.1L166.075,252h3.919l6.49,16.348Zm-4.363-11.8-1.975,5.373h3.965Z" transform="translate(-144.078 -252)"/>
        <path id="XMLID_4107_" d="M283,268.348V252h3.827v16.348Z" transform="translate(-248.589 -252)"/>
        <path id="XMLID_4105_" d="M341.181,268.348H329.7V252h3.827v12.843h7.654Z" transform="translate(-288.14 -252)"/>
        <path id="XMLID_4103_" d="M406.5,268.348h-3.888v-5.082L396.6,252h4.179l3.827,7.179L408.387,252h4.271l-6.138,11.236v5.113Z" transform="translate(-344.799 -252)"/>
    </g>
    <g id="XMLID_4094_" transform="translate(85.447 1.733)">
        <path id="XMLID_4100_" d="M626.3,268.348h-3.888v-5.082L616.4,252h4.179l3.827,7.179L628.187,252h4.271l-6.138,11.236v5.113Z" transform="translate(-616.4 -251.633)"/>
        <path id="XMLID_4097_" d="M738.359,252.1a8.846,8.846,0,0,1,0,12.123,8.206,8.206,0,0,1-11.756,0,8.846,8.846,0,0,1,0-12.123,7.9,7.9,0,0,1,5.878-2.5A7.8,7.8,0,0,1,738.359,252.1Zm-2.694,9.521a4.854,4.854,0,0,0,1.271-3.459,5.024,5.024,0,0,0-1.271-3.49,4.335,4.335,0,0,0-6.368,0,5.387,5.387,0,0,0,0,6.95,4.368,4.368,0,0,0,6.368,0Z" transform="translate(-707.699 -249.6)"/>
        <path id="XMLID_4095_" d="M864.515,260.986a8.162,8.162,0,0,1-1.883,5.633,6.367,6.367,0,0,1-4.99,2.112,6.6,6.6,0,0,1-5.113-2.112,8.013,8.013,0,0,1-1.929-5.633V252h3.827v8.985a4.462,4.462,0,0,0,.888,2.939,2.862,2.862,0,0,0,2.342,1.087,2.653,2.653,0,0,0,2.22-1.087,4.723,4.723,0,0,0,.842-2.939V252h3.827v8.985Z" transform="translate(-814.75 -251.633)"/>
    </g>
    <g id="XMLID_4033_" transform="translate(69.465)">
        <path id="XMLID_4068_" d="M530.048,258.536c-1.225.413-2.511-.015-3.8.306a2.828,2.828,0,0,1-.352.015c-1.362-.123-2.863.306-4.148.276-.184-.015-.352,0-.49,0a.737.737,0,0,1-.322,0,.662.662,0,0,1-.352.015.44.44,0,0,1-.184.031h-.352c.015.031-.123.031-.459.046,0,.015-.077.015-.214.015a1.74,1.74,0,0,1-.352.031,1.258,1.258,0,0,0-.321.015h-.26c-.153.015-.291.015-.413.031h-.306c-.138.015-.26.015-.413.031-.077,0-.214.015-.4.015-.077.015-.2.015-.383.031-.077,0-.2.015-.383.031-.092,0-.214.015-.367.015a3.484,3.484,0,0,0-.383.015h-.536c-.367,0-.735-.015-1.117-.031a.432.432,0,0,1-.23-.061.716.716,0,0,1-.23-.245,1.477,1.477,0,0,1-.092-.719c.015-.352.046-.75.107-1.209v-.107a.166.166,0,0,0,.015-.077,4.824,4.824,0,0,0-.964-.337.368.368,0,0,1-.184-.107.6.6,0,0,1-.122-.153.405.405,0,0,1-.046-.153.283.283,0,0,1,.031-.107c.015-.031.046-.046.061-.077.015,0,.015,0,.03-.015a16.362,16.362,0,0,0,2.113-2.6c.153-.23.321-.459.49-.689q2.273-3.077,4.194-6.246a20.211,20.211,0,0,0,1.561-3.169A5.78,5.78,0,0,0,520.8,242a1.335,1.335,0,0,0,.015-.214.222.222,0,0,0-.031-.107c0-.015,0-.015-.015-.031a.054.054,0,0,1-.015-.031v-.015h-.015a.488.488,0,0,0-.107-.061,1.385,1.385,0,0,0-.26-.077,1.571,1.571,0,0,0-.383-.015H519.9a1.351,1.351,0,0,0-.322.046,4.274,4.274,0,0,0-1.806,1,6.1,6.1,0,0,0-1.439,1.806,5.628,5.628,0,0,0-.383.98,2.231,2.231,0,0,0-.077.811,1.942,1.942,0,0,1,.015.291,1.854,1.854,0,0,1-.046.352,5.767,5.767,0,0,1-.98,1.7,2.229,2.229,0,0,0-.26.4c-.138.291-.276.444-.429.444a.6.6,0,0,1-.444-.245,4.271,4.271,0,0,1-.918-1.469,4.979,4.979,0,0,1-.291-1.669,6.247,6.247,0,0,1,.765-2.862,10.3,10.3,0,0,1,3.505-3.781,5.549,5.549,0,0,1,2.112-.827,6.157,6.157,0,0,1,1.5-.138,4.45,4.45,0,0,1,1.638.352,2.7,2.7,0,0,1,.995.827c.046.061.122.138.184.214a1.771,1.771,0,0,1,.444.719,7.377,7.377,0,0,1,.122,1.684c0,.015,0,.015-.015.031a.056.056,0,0,0-.015.046c0,.015.015.031.046.046a.37.37,0,0,0,.107.046c.046.015.076.031.076.046s-.015.031-.031.046a.333.333,0,0,1-.077.046c-.015.015-.046.015-.061.031a.033.033,0,0,0-.031.031,3.887,3.887,0,0,1-.076.628,2.219,2.219,0,0,0-.061.842.437.437,0,0,1-.031.245,1.531,1.531,0,0,1-.107.23,1.258,1.258,0,0,0-.107.2.742.742,0,0,0-.046.107c-.015.015-.031.046-.046.061a.115.115,0,0,0-.015.077,1.787,1.787,0,0,1-.4,1.271,1.929,1.929,0,0,0-.26.536,1.93,1.93,0,0,1-.245.505,1.008,1.008,0,0,0-.168.367,1.1,1.1,0,0,1-.245.413,1.011,1.011,0,0,0-.168.367,1.843,1.843,0,0,1-.107.26,1.163,1.163,0,0,1-.168.214.388.388,0,0,0-.138.2,1.289,1.289,0,0,0-.077.26.91.91,0,0,1-.077.291c-.015.015-.015.046-.03.077a.565.565,0,0,1-.107.214.335.335,0,0,1-.214.122.041.041,0,0,0-.046.046v.092a.092.092,0,0,1,.015.061c0,.015-.015.031-.031.046a.345.345,0,0,1-.107-.015c-.015,0-.015,0-.03-.015,0-.015-.015-.031-.015-.046s0-.015-.015-.031l-.015-.015a.048.048,0,0,0-.031.015c-.015.015-.046.046-.061.046a.287.287,0,0,0-.092.107.225.225,0,0,0,.015.168.768.768,0,0,1,.046.107c.015.015.015.046.031.046h-.076c-.046.015-.077.046-.077.077a.42.42,0,0,0-.015.138.3.3,0,0,1-.015.122.1.1,0,0,1-.077.076.4.4,0,0,1-.214-.031c.046.077.077.138.061.168a.274.274,0,0,1-.077.107l-.046.046c-.015.015-.015.046-.031.061a.349.349,0,0,1-.092.184.632.632,0,0,1-.169.107.417.417,0,0,0-.153.122,2.4,2.4,0,0,0-.505.934.82.82,0,0,1-.077.168.582.582,0,0,1-.138.2.869.869,0,0,1-.2.122.881.881,0,0,0-.291.23,3.655,3.655,0,0,0-.2.429,1.076,1.076,0,0,1-.168.352.92.92,0,0,1-.245.291c-.077.077-.138.168-.214.26a.331.331,0,0,1-.138.214.318.318,0,0,1-.245.122.259.259,0,0,0-.153.107c-.031.061-.061.122-.092.2a.477.477,0,0,1-.092.2l-.184.276a3.4,3.4,0,0,1-.214.276c-.015.015-.031.046-.046.046-.015.015-.015.046-.031.046a1.885,1.885,0,0,0,.306-.031,1.219,1.219,0,0,0,.306-.107.318.318,0,0,1,.2.031c.015,0,.031,0,.031.015.031,0,.031-.015.031-.015.03-.015.046-.031.03-.031l.046-.046c.046-.015.061,0,.046.015.138.107.245.153.291.122.046-.015.061-.015.015,0,.046-.015.046,0,0,.015.061-.031.061-.031.015-.031.046-.015.046-.046,0-.046q.069-.046,0-.092.069-.069,0-.092h0q.069,0,0,.046c.061.015.061.031.031.061.046.015.061.046.015.092.076-.031.122-.046.107-.015.092-.015.122-.031.092-.031q.161-.046.092-.138c.092-.046.107-.077.061-.061.092,0,.107.015.061.031.076,0,.092.015.046.031.076-.015.092,0,.031.015.077-.015.092,0,.031.015.077,0,.092-.015.031-.015.122-.138.168-.214.153-.245.122,0,.184.015.184.061.092.031.107.031.077.015q.138,0,.092-.046c.077,0,.107-.015.061-.046h.077c.061.031.184-.015.168-.046.061.015.429.031.383-.015.337.015.352.015.444-.031.107-.015.321-.077.2-.153.138.076.168.076.031.015.153.077.168.077.031-.015.153.061.245.107.107.061.719,0,1.469,0,2.235-.015.122,0,.26-.015.383-.015a16.67,16.67,0,0,1,4.332-.2h.459a.788.788,0,0,0,.413-.092.426.426,0,0,0,.352-.031c0,.015.061-.046.138-.122-.015,0,.015-.015.061-.046h.061c0,.031.031.061.077.077,0,.031.015.061.046.061,0,.031.031.046.046.031.046,0,.092-.046.138-.107.031-.031.061-.077.107-.092a.094.094,0,0,1,.107.031c.015.015.031.015.061.015a.116.116,0,0,0,.061-.015.056.056,0,0,1,.046-.015.116.116,0,0,1,.061.031c.015.015.031.061.061.107.015.031.015.061.031.061a.056.056,0,0,0,.046-.015l.046-.046.031-.031c.015-.015.015-.015.031-.015a.44.44,0,0,1,.2-.015.77.77,0,0,1,.184.031,503.309,503.309,0,0,1,.245.031.747.747,0,0,1,.184.015.29.29,0,0,1,.168.107.419.419,0,0,1,.031.2,3.892,3.892,0,0,1-.015.4c-.015.153-.015.276-.031.4a10.849,10.849,0,0,0-.092,1.623v.291c-.015.077-.015.153-.031.214a1.06,1.06,0,0,1-.03.2.7.7,0,0,1-.031.122c-.015.015-.015.031-.031.046l-.015.015a.015.015,0,0,1-.015-.015C530.384,258.567,530.231,258.521,530.048,258.536Zm-12.721-18.354c.122-.077.245-.168.367-.26a3.605,3.605,0,0,1,.857-.475,8.153,8.153,0,0,1,1.133-.306,3.561,3.561,0,0,1,1.209-.015,2.9,2.9,0,0,1,1.179.49,2.616,2.616,0,0,1,.857,1.087,2.248,2.248,0,0,1,.138.765c.015.153.031.321.061.49a3.615,3.615,0,0,1-.153,1.623c-.015.046-.015.077-.03.122a11.933,11.933,0,0,1-.582,1.669,15.533,15.533,0,0,1-1,2.1c-.122.214-.214.429-.306.628l-.138.321a19.274,19.274,0,0,0,2.235-4.332,7.9,7.9,0,0,0,.352-1.439,4.522,4.522,0,0,0,.061-.8,3.789,3.789,0,0,0-.107-.888,3.1,3.1,0,0,0-1.01-1.592,3.267,3.267,0,0,0-1.531-.689,4.889,4.889,0,0,0-2.939.475,7.746,7.746,0,0,0-2.266,1.684,8.995,8.995,0,0,0-1.592,2.357,6.063,6.063,0,0,0-.6,2.893,2.771,2.771,0,0,0,.122-.322.932.932,0,0,0,.138-.352,9,9,0,0,1,.7-2.082,7.751,7.751,0,0,1,1.163-1.806A6.8,6.8,0,0,1,517.327,240.182Zm-2.373,15.093c-.046-.046-.077-.061-.107-.061s-.046.015-.061.046c.015.092.031.184.046.291a.381.381,0,0,0,.015.122h.138c.015-.046.031-.076.046-.122a.285.285,0,0,0,.031-.107A.268.268,0,0,0,514.955,255.275Zm.612,1.929a1.725,1.725,0,0,0,.276.046.547.547,0,0,0,.168-.061.256.256,0,0,1,.2-.046,1.135,1.135,0,0,0,.383-.077.642.642,0,0,1,.245-.061,2.753,2.753,0,0,1,.337-.031c.092-.015.184-.015.26-.031.046,0,.092,0,.107.031a.543.543,0,0,1,.092.015.249.249,0,0,0,.092-.046q.092-.115.138-.092c.076-.031.138-.046.168,0,.061-.031.107-.046.107-.015.122-.046.2-.061.23-.015.123-.061.184-.077.23-.015q.161-.115.23-.046c.169-.107.306-.138.429-.046.092-.092.168-.107.2-.061q.092-.184.092-.046a.413.413,0,0,0-.444-.046.467.467,0,0,0-.459-.031,2.6,2.6,0,0,0-.857-.031,5.569,5.569,0,0,0-.842.046c-.291.031-.582.061-.873.107-.092.092-.168.184-.245.26C515.751,257.005,515.659,257.1,515.567,257.2Zm13.516-.122a2.3,2.3,0,0,0-1.316-.321,4.311,4.311,0,0,0-.444.031,2.116,2.116,0,0,1-.413.122,4.121,4.121,0,0,1-.429.061,7.864,7.864,0,0,0-2.664.153l-.444.046a23.915,23.915,0,0,1-3.475.153.351.351,0,0,0-.276.015.292.292,0,0,0-.276,0,.355.355,0,0,0-.306,0,.82.82,0,0,0-.337-.015,1.183,1.183,0,0,0-.352-.092c0-.031-.031-.031-.061,0,0-.015-.031-.015-.061.015a.187.187,0,0,1-.046.031c0-.015-.031-.015-.061,0,0-.031-.015-.031-.03-.015,0-.031-.015-.031-.031-.031,0-.015,0-.015-.03,0,.015-.015,0,0-.015.046a.084.084,0,0,1-.061.092c-.031.015-.061-.015-.092-.077.015-.015,0-.031-.015-.015h-.031c.015,0,0,.015-.015.015a.269.269,0,0,1,.015.092c-.092.138-.184.214-.306.214a.392.392,0,0,1-.322,0h-.214a2.027,2.027,0,0,0-.23.077v-.061c.015,0,.015,0,.015-.015l.015-.015h.031v.015c.015,0,.015,0,.015-.015.015,0,.015-.015.015-.046a.542.542,0,0,0,.015-.092c-.015,0-.015.015-.031.015a.056.056,0,0,1-.046.015c-.015,0-.015.015-.031.015,0,.015-.015.031-.031.046,0,.031,0,.046-.015.046-.015.015-.015.015-.031.015,0,0-.015,0-.031-.031-.015-.015-.015-.061-.031-.107a.585.585,0,0,1-.015.2c0,.046-.015.061-.031.046a.688.688,0,0,1-.168.015.226.226,0,0,1-.107.015c-.046,0-.092.015-.138.015a1.16,1.16,0,0,0-.23.015H515.9a.056.056,0,0,0-.015.046v.076a.056.056,0,0,0,.015.046c0,.015.015.031.015.046s.015.015.031.015c.123-.015.26-.015.367-.031a1.555,1.555,0,0,0,.383-.031.491.491,0,0,0,.26-.031.7.7,0,0,0,.4-.046.167.167,0,0,0,.2-.046.2.2,0,0,0,.184-.061.265.265,0,0,0,.184.015c.076.077.138.077.2.015a.12.12,0,0,0,.168,0,.235.235,0,0,0,.352-.046,1.206,1.206,0,0,0,.352-.061c.046.031.077.031.092-.031a.091.091,0,0,0,.107-.015l.092.092c.015.046.015.015.015-.046.015.046.015.015,0-.031a.218.218,0,0,0,.2-.031c.015.046.459,0,.413-.046.046.046.153.046.275-.031,1.286-.061,2.48-.015,3.658-.046a3.445,3.445,0,0,0,.4-.015,2.5,2.5,0,0,0,.352.031,2.719,2.719,0,0,0,.352-.015,2.863,2.863,0,0,1,.719-.107c.122-.015.23-.046.352-.061a8.6,8.6,0,0,1,.964-.138,3.5,3.5,0,0,1,.4-.031c.4-.046.8-.092,1.194-.168a3.156,3.156,0,0,1-1.424.276h-.383a1.6,1.6,0,0,0-.383,0l-.4.046a3.608,3.608,0,0,1-.857.122,2.151,2.151,0,0,1-.444,0,2.4,2.4,0,0,1-.459-.077c-.153.015-.322.031-.475.031-1.1.092-2.235.23-3.291.23a37.166,37.166,0,0,1,3.919,0h.444c.566,0,1.209-.429,1.822-.2.153.015.306.031.444.046a1.944,1.944,0,0,0,1.7-.413C528.869,257.066,528.976,257.066,529.083,257.082Zm-12.353-4.516a.966.966,0,0,0-.031.107.056.056,0,0,1-.015.046.194.194,0,0,1,.092.015c.031.015.061.015.092.031a.056.056,0,0,0,.077-.031c.735-.98,1.439-1.975,2.128-2.97.505-.75.995-1.5,1.469-2.266.046-.077.092-.153.122-.214.367-.628.72-1.27,1.041-1.929.184-.383.4-.75.6-1.133a1.535,1.535,0,0,0,.122-.49,1.864,1.864,0,0,1,.092-.4c.015-.015.015-.046.031-.061a1.62,1.62,0,0,0,.061-.153.217.217,0,0,0-.015-.168,1.583,1.583,0,0,1-.031-.306.287.287,0,0,1,.122-.26c.015-.015.031-.031.031-.046a.091.091,0,0,0-.015-.061v-.061a.269.269,0,0,1-.092.015c-.015-.061-.031-.107-.046-.153a3.985,3.985,0,0,0-.6-1.546,1.76,1.76,0,0,0-1.546-.7c.015-.015.015-.046.031-.061a.167.167,0,0,1,.077-.015c.015,0,.046.015.061.015a.217.217,0,0,0,.092.031c.031,0,.061-.046.107-.122h-.092a.575.575,0,0,1-.168-.015.194.194,0,0,0-.092.015c-.031.015-.061.015-.092.031a.3.3,0,0,1-.153.046c-.046,0-.092-.046-.138-.153-.046.184-.123.26-.214.26a3.487,3.487,0,0,0-.781.138c-.031.015-.076.015-.107.031a5.588,5.588,0,0,0-1.148.536h-.031l-.031.031a.056.056,0,0,0-.015.046.6.6,0,0,0,.031.092c0,.015.015.015.031.031.015,0,.046.015.061.015a.056.056,0,0,0,.046-.015,4.144,4.144,0,0,1,2.235-.674,2.189,2.189,0,0,1,1.669.7,1.887,1.887,0,0,1,.368.719,1.655,1.655,0,0,1-.015.9c-.031.122-.061.245-.092.383a4.078,4.078,0,0,1-.245.873q-.23.551-.413,1.148a5.755,5.755,0,0,1-.49,1.133,1.666,1.666,0,0,0-.122.291,2.258,2.258,0,0,1-.153.337.514.514,0,0,1-.276.23.166.166,0,0,1,.015.077.154.154,0,0,1,.015.061c-.122.214-.245.429-.367.628-.214.383-.459.765-.7,1.148a1.024,1.024,0,0,0-.107.168c-.459.719-.919,1.439-1.408,2.128a.056.056,0,0,1-.046.015l-.015.015c0-.015,0-.015-.015-.031v-.061c.092-.153.168-.306.26-.475l-.061-.046c-.321.444-.628.888-.949,1.316.092.061.138.077.168.046q.046-.023.046-.138l.03-.031c.015,0,.015-.015.031-.015h.046v.092Zm.061-.674v.046l.015.015a.2.2,0,0,0,.092.015h.153c-.015-.015-.015-.046-.031-.046a.274.274,0,0,1-.076-.107.056.056,0,0,0-.046.015A.382.382,0,0,1,516.791,251.892Zm.566,5.48a.056.056,0,0,1-.015-.046h-.015v.092c.015,0,.015,0,.015-.015v-.031Zm.765-7.1-.061.107.046.031.061-.123Zm.49-.7-.4.566.046.031.383-.566Zm.306-.4-.26.306.031.015.046-.046a.468.468,0,0,0,.122-.123.22.22,0,0,0,.031-.107A.054.054,0,0,0,518.919,249.168Zm.168,7.975c0-.077,0-.092-.015-.031.015-.077.015-.092,0-.015,0-.077,0-.061-.015.046.015-.061,0-.046-.015.046.015-.061.031-.061.015,0,.015-.061.031-.061.015,0,.015-.061.031-.061.015,0,.015-.061.015-.076,0-.015.015-.061.015-.092,0-.015Zm0-6.827a.056.056,0,0,1,.046.015h.046c-.015-.015-.015-.015-.015-.031-.015-.015-.015-.031-.031-.031-.015-.015-.031-.015-.046-.031h-.031v.015A.079.079,0,0,1,519.088,250.316Zm.551,6.751c0-.092,0-.107-.015-.015.015-.092,0-.092-.015-.015,0-.107,0-.107-.031-.031.015-.092,0-.092-.015,0,0-.077,0-.061-.015.061.015-.077.031-.061.015.031.031-.046.046-.031.061.061.015-.092.015-.092,0-.031.015-.092.015-.107,0-.031C519.654,257.02,519.654,256.99,519.639,257.066Zm.031-1.424c.061.031.046.031-.031,0,.061.031.2.092.122.061.077.031.061.015-.015-.015q.115.023,0-.046C519.792,255.689,519.761,255.689,519.669,255.643Zm.367,2.036c.061.107.168.138.107.015.107-.031-.107-.031-.092-.031C520.128,257.771,520.113,257.786,520.037,257.679Zm.138-.031C520.251,257.755,520.251,257.8,520.174,257.648Zm.061-.643C520.312,256.883,520.312,256.867,520.236,257.005Zm.138-8.664a.334.334,0,0,1,.076-.061.4.4,0,0,0,.077-.092.167.167,0,0,0,0-.122c-.015.015-.046.015-.061.031a.532.532,0,0,0-.138.122c-.015,0-.015.015-.015.031s.015.031.046.061A.047.047,0,0,1,520.373,248.341Zm.031,9.307C520.5,257.755,520.511,257.8,520.4,257.648Zm.781-8.251-.061-.046-.184.367h.015c.015,0,.015,0,.031.015Zm7.746,8.052c.107-1.286-.107-1.286-.031-.046C528.884,257.4,528.9,257.418,528.93,257.449Zm-7.638-10.9c0,.015,0,.015.015.031v.015c.015,0,.015,0,.031-.015a.116.116,0,0,0,.061-.031l-.015-.046c-.015-.015-.015-.046-.031-.077-.015.031-.015.061-.031.061C521.323,246.5,521.307,246.52,521.292,246.55ZM530,256.745C530,256.776,529.986,256.806,530,256.745Zm-7.684-16.333h-.092v.046a.015.015,0,0,0,.015.015c.015.015.031.015.046.031h.015c.015-.015.015-.015.015-.031C522.317,240.442,522.317,240.427,522.317,240.412Z" transform="translate(-512 -238.281)" fill="#ffcf61"/>
        <path id="XMLID_4055_" d="M588.97,331.406a2.272,2.272,0,0,0-.046-.475l-.015-.107-.03-.092-.046-.184a2.129,2.129,0,0,0-.123-.306,3.827,3.827,0,0,0-.474-.842,5.433,5.433,0,0,0-.949-.934,7.969,7.969,0,0,0-.98-.674,15.5,15.5,0,0,0-2.036-.98,12.464,12.464,0,0,0-1.669-.536,8.264,8.264,0,0,0-.888-.168,3.591,3.591,0,0,0-.995,0c-.046.015-.092.015-.138.031a1.585,1.585,0,0,1-.153.061l-.138.092a1.45,1.45,0,0,1-.153.153.4.4,0,0,0-.107.245,1.312,1.312,0,0,0-.031.352,2.835,2.835,0,0,0,.214.735c.046.092.077.184.107.26a2.735,2.735,0,0,0,.123.276c.031.061.046.107.061.138s0,.046,0,.046c0,.015.015.015.046.015a.3.3,0,0,0,.107-.015c.046-.015.092-.015.138-.031.046,0,.076-.015.122-.015.122-.015.245-.015.383-.031a3.458,3.458,0,0,1,1.117.092,2.483,2.483,0,0,0,.291.061c.061.015.122.015.184.031a1.454,1.454,0,0,1,.582.276.407.407,0,0,0,.184.046h.031a.053.053,0,0,1,.031.015l.031.031.046.046a.056.056,0,0,0,.046.015.28.28,0,0,1,.291.031v-.015h.015v.046a.115.115,0,0,1-.015.061c0,.031-.015.046-.015.061s0,.015.015,0a.053.053,0,0,0,.015-.031c0-.015.015-.015.015-.031.015-.015.015-.031.031-.046a.321.321,0,0,0,.092.061.513.513,0,0,1,.092.046.287.287,0,0,1,.061.138q.023.046.046.046h.168a.015.015,0,0,1,.015.015.274.274,0,0,0,.107.2.178.178,0,0,0,.153.031.061.061,0,0,1,.061.031c.015.015.046.031.061.061a.115.115,0,0,0,.107.061.2.2,0,0,1,.092.077c.015.015.03.031.046.031.015.015.031.015.046.031a.056.056,0,0,1,.046.015l.046.046a.209.209,0,0,1,.046.061.046.046,0,0,0,.061,0c.031-.015.046,0,.061.015a.518.518,0,0,1,.046.092c.015.031.015.046.03.077a.015.015,0,0,1,.015.015c0,.015.015.031.031.046a.057.057,0,0,0,.046.015c.015,0,.03-.015.061-.061h.015v.092c0,.015,0,.015.015.015a.19.19,0,0,0,.031-.046v-.061s.015-.015.015,0h.046a.015.015,0,0,1,.015.015.2.2,0,0,1-.015.076c0,.015-.015.046-.015.061v.031h.015a.056.056,0,0,0,.015-.046c.015,0,.031,0,.031.015v.061c0,.031,0,.046.015.061,0,.015.015.015.031,0a.388.388,0,0,0,.076-.107.167.167,0,0,0-.015.077v.031l.015.015h.015v.015c.015.031.015.046.046.046.015,0,.031-.015.061-.015.031-.015.046-.015.061,0,.046,0,.092.046.122.092a.765.765,0,0,1,.077.2c0,.031.015.031.046.031a.092.092,0,0,0,.061-.015h.061a.056.056,0,0,1,.046.015.378.378,0,0,1,.061.138.782.782,0,0,0,.046.107.084.084,0,0,0,.077.046c.015,0,.015.015.031.015a.057.057,0,0,1,.015.046l.031.031c.015.015.015.015.03.015s.031-.015.061-.031.046-.015.046,0v.092l.612.122c.015,0,.015,0,.031.015h.031c.015,0,.015,0,.03.015a1.25,1.25,0,0,1,.459.168,1.115,1.115,0,0,1,.276.474c.015.046.031.092.061.107a.113.113,0,0,0,.092.031.142.142,0,0,0,.138-.107,1.2,1.2,0,0,0,.076-.214C588.939,331.773,588.97,331.574,588.97,331.406Zm-1.653-1.806h0l.015-.015a.056.056,0,0,1,.046-.015v.046a.033.033,0,0,0-.031.031l-.031.031c-.015.015-.031.015-.031.031A.221.221,0,0,1,587.317,329.6Zm-.475-.352.031.031-.015.031-.031-.031Zm-.2-.138.153.122-.015.031-.168-.122Zm-.031-.031-.015.015s-.015.015-.015,0a.056.056,0,0,1-.046-.015.015.015,0,0,1-.015-.015,5.438,5.438,0,0,1-.031-.031Zm-3.245-.536q-.643-.253-1.286-.459a4.821,4.821,0,0,0-1.3-.276c.015-.015.015-.031.031-.046a.263.263,0,0,1,.061-.077.082.082,0,0,1,.061-.046,1.522,1.522,0,0,1,.826.076c.077.015.153.046.23.061.092.015.2.015.291.031a1.682,1.682,0,0,1,.276.031.823.823,0,0,1,.168.077.363.363,0,0,0,.168.092,1.443,1.443,0,0,1,.352.153.827.827,0,0,0,.2.107,1.866,1.866,0,0,1,.26.107c.092.031.184.077.291.122a.218.218,0,0,0,.092.031.194.194,0,0,1,.092.015.153.153,0,0,1,.077.061.465.465,0,0,0,.26.2.385.385,0,0,1,.107.061.517.517,0,0,0,.184.092,1.546,1.546,0,0,1,.214.122,1.655,1.655,0,0,0,.214.138,3.474,3.474,0,0,0,.306.2.721.721,0,0,1,.153.153.152.152,0,0,0,.077.061A22.639,22.639,0,0,0,583.368,328.543Zm.6-.413h0l.015-.015c0,.015,0,.015.015.031v.015a10.779,10.779,0,0,1-.031.031ZM585.5,329h0c-.015.015-.03.015-.03.031v-.077h.03l.015.015L585.5,329Zm.306,1.225-.092-.046.031-.061.077.092C585.8,330.212,585.8,330.212,585.8,330.227Zm.061-.964h.015a.116.116,0,0,1,.061-.031v.092h-.031s-.015.015-.015,0a.015.015,0,0,1-.015-.015C585.863,329.309,585.863,329.293,585.863,329.263Zm.628.367a.056.056,0,0,1-.015.046l-.015.015a.047.047,0,0,0-.015.031v-.046c.031-.015.031-.031.046-.046Zm.888.367-.046.046c-.015.015-.015.015-.031,0a5.464,5.464,0,0,0-.827-.643,6.671,6.671,0,0,0-.7-.429,1.54,1.54,0,0,1-.23-.107,1.608,1.608,0,0,0-.658-.23.384.384,0,0,1-.107-.061.177.177,0,0,0-.107-.077h-.077c-.015,0-.015-.015-.031-.046a.092.092,0,0,0-.046-.092c-.031-.015-.061-.015-.092.031a.015.015,0,1,1-.031,0,.015.015,0,0,0-.015-.015v-.015a.075.075,0,0,0,.015-.046.674.674,0,0,0-.245-.26,1.625,1.625,0,0,0-.291-.107,1.01,1.01,0,0,1-.4-.168v.046a.015.015,0,0,0,.015.015h.031a.053.053,0,0,1,.015.031.2.2,0,0,1-.015.077.015.015,0,0,1-.015-.015c-.015-.015-.03-.015-.046-.031a.015.015,0,0,1-.015-.015c0-.015-.015-.015-.015-.046,0-.015-.015-.031-.015-.046s-.015-.015-.031,0a.164.164,0,0,0-.046.077.588.588,0,0,0,.015-.138c0-.031-.015-.046-.031-.031a.749.749,0,0,1-.168-.061l-.092-.046a1.359,1.359,0,0,0-.23-.077.363.363,0,0,0-.122-.031h-.031v-.031a.115.115,0,0,1,.015-.061c0-.015,0-.031.015-.031l.015-.015.015-.015c.23.077.475.153.7.245.046.015.077.031.122.046a2.872,2.872,0,0,1,.459.184c.061.031.122.077.184.107a.718.718,0,0,0,.337.138.769.769,0,0,1,.2.076c.046.015.107.046.153.061a.715.715,0,0,1,.306.184,1.311,1.311,0,0,0,.306.2.268.268,0,0,1,.077.061.321.321,0,0,0,.092.061.135.135,0,0,0,.122-.031v.061a.538.538,0,0,0,.123.077c.015.015.046.031.061.046.122.077.26.153.383.245.2.138.4.291.6.444h.015l.015-.015v-.046a.647.647,0,0,0-.077-.107l-.031-.031.015-.046a3.732,3.732,0,0,1,.383.306c-.015.031-.031.061-.046.061-.015.015-.015.015-.031,0,0-.015-.015-.015-.015-.046h-.015s-.015.015-.015,0v.061l.031.031a1.942,1.942,0,0,0,.2.168c0,.015,0,.015.015.031v.015C587.393,329.952,587.378,329.967,587.378,330Z" transform="translate(-569.591 -312.636)" fill="#ffcf61"/>
        <g id="XMLID_4034_" transform="translate(9.873 18.571)">
            <path id="XMLID_4054_" d="M590.36,389.731c-.015-.015-.015-.031-.031-.031l-.23.092v.046h0l.26-.107Z" transform="translate(-588.018 -385.092)" fill="#ffcf61"/>
            <path id="XMLID_4053_" d="M578.814,386.131a.015.015,0,0,0,.015-.015l.015-.015c-.092.031-.168.061-.245.092h.031c.015-.015.046-.015.061-.031A.471.471,0,0,1,578.814,386.131Z" transform="translate(-578.279 -382.044)" fill="#ffcf61"/>
            <path id="XMLID_4042_" d="M586.224,360.243a1.543,1.543,0,0,0-.459-.49,1.624,1.624,0,0,1-.168-.138l-.627-.015c-.046.046-.107.092-.153.138-.153.153-.321.291-.505.444a.267.267,0,0,1-.076.061,9.736,9.736,0,0,1-1.3.949c-.138.092-.291.184-.429.276-.046.031-.092.061-.153.107a3.638,3.638,0,0,1-.781.367.912.912,0,0,0-.23.138c-.015,0-.015.015-.031.015a.135.135,0,0,1-.107.015c-.015,0-.046.015-.061.015a.116.116,0,0,0-.061.031.609.609,0,0,1-.321.245.015.015,0,0,1-.015.015v.015h-.015l-.015-.015c0-.015-.015-.031-.015-.061a.056.056,0,0,1-.015-.046h-.015v.122l-.138.046a.463.463,0,0,1-.122.061.276.276,0,0,1-.153-.015.069.069,0,0,0-.076,0c-.015.015-.046.031-.061.061l-.046.046c-.015,0-.015.015-.031.031l-.015.015h-.031a.306.306,0,0,0-.23-.015.638.638,0,0,0-.184.122.516.516,0,0,1-.184.092.75.75,0,0,0-.168.061.174.174,0,0,1-.122.046.287.287,0,0,0-.138.061.248.248,0,0,1-.138.046.115.115,0,0,0-.077.015.269.269,0,0,0-.076.061h0a.132.132,0,0,0-.092.046h-.077a.193.193,0,0,1-.092-.015c-.015,0-.015.015-.031,0a.138.138,0,0,0-.077.015c-.03.015-.046.046-.046.107,0,.015,0,.015-.015.015s-.015-.015-.031-.015l-.015-.015h-.015v.061a.048.048,0,0,0,.015.031c.015.015.015.015.015.031h0c.031-.015.077-.031.107-.046,0,.015-.015.015-.015.031a.041.041,0,0,1-.046.046h-.092c0,.015-.015.015-.031.031h-.031l-.031-.031c.015,0,.015,0,.031-.015h-.031l-.015-.015c-.015-.015-.015-.031-.031-.046,0-.015-.015-.031-.015-.046v.046a.033.033,0,0,1-.031.031c-.015,0-.031-.015-.046-.031a.056.056,0,0,0-.046-.015c-.015,0-.015.015-.031.031v.107h-.015a.223.223,0,0,1-.031-.046c-.015-.015-.015-.015-.031-.015s-.015.015-.015.031l-.015.015h-.031c-.031-.015-.046-.015-.061,0a.337.337,0,0,0-.046.077c-.015.031-.015.046-.031.061.031-.015.077-.031.107-.046a.053.053,0,0,0-.031.015l-.092.046c-.015,0-.015,0-.03.015a.272.272,0,0,1-.153.061h-.031a.774.774,0,0,0-.245.138c-.015.015-.015.061-.015.138a1.3,1.3,0,0,0,.015.245c.015.092.031.168.046.245a3.036,3.036,0,0,1,.061,1.209.207.207,0,0,0,0,.138,1.02,1.02,0,0,0,.031.107.329.329,0,0,0,.046.077.056.056,0,0,0,.046.015c.015,0,.015-.015.031-.015a.015.015,0,0,0,.015-.015,4.06,4.06,0,0,1,1.072-.413c.138-.046.276-.077.413-.122.888-.322-.306.138.536-.276.857-.4,1.7-.827,2.541-1.255.658-.337,1.316-.7,1.975-1.087a13.116,13.116,0,0,0,1.975-1.408,1.988,1.988,0,0,0,.23-.26,1.5,1.5,0,0,0,.168-.383A.668.668,0,0,0,586.224,360.243Zm-8.358,3.306Zm.184,1.179c0,.015-.015.015-.031.015l-.092-.092c-.015-.015-.015-.031-.031-.046v-.015c0-.031.015-.046.015-.077a.029.029,0,0,0,.046,0c.015,0,.015,0,.031.015.015,0,.015.015.031.031s.015.046.031.076Zm.98-1.607c-.015.015-.031.031-.046.031h-.061A.482.482,0,0,0,579.029,363.121Zm-.689.245h0v-.031h0l.122-.061.015.061Zm4.883-1.072h0c-.26.153-.505.291-.765.429a.461.461,0,0,0-.122.061c-.077.046-.153.092-.245.138-.168.092-.322.168-.49.26-.092.031-.168.061-.245.092a1.252,1.252,0,0,0-.429.214.912.912,0,0,1-.23.138,1.264,1.264,0,0,0-.2.107,1.262,1.262,0,0,1-.413.184,2.348,2.348,0,0,0-.413.168.388.388,0,0,1-.107.031,1.041,1.041,0,0,0-.122.046.332.332,0,0,0-.092.107l.4-.153-.015.015h-.015v.031l.031.031c.046-.015.107-.015.153-.031h0c.015-.015.046-.015.061-.031v-.015h.046c.015,0,.03-.015.061-.015h0l.23-.107v.015c.031-.015.046-.015.031-.015v.015l-.153.061-.107.046V364.1l-.046.015v.015h-.046l-.03.015.015.046-.184.092c-.123.046-.245.107-.352.153v-.092l-.061.015c0,.015.015.031.015.046a.053.053,0,0,0,.015.031l-.015.015c0,.015-.015.031-.031.046h0a.015.015,0,0,0-.015-.015v-.077a.116.116,0,0,1,.015-.061l-.4.138a5.334,5.334,0,0,1-.628.23c.015-.015.031-.031.046-.031s.031-.015.046,0h.015l.536-.2c.122-.046.26-.107.4-.153V364.3c0,.015,0,.015.015.015.015-.015.046-.015.061-.031,0-.015,0-.031.015-.031s.015,0,.031.015h0a.015.015,0,0,0,.015-.015v-.015l.015-.015a.015.015,0,0,0-.015-.015l-.015-.015h-.015l-.352.138c-.015,0-.015.015-.031,0l-.015-.015-.52.2.505-.23h.015v-.077c0-.015,0-.031.015-.031.367-.153.735-.321,1.1-.49.031-.015.061-.015.092-.031.092-.046-1.883.719-1.806.689.245-.107.475-.214.7-.337.107-.046.214-.107.322-.153a3.922,3.922,0,0,0,.6-.337v-.031a.015.015,0,0,1,.015.015c.061-.046.107-.077.168-.122a.456.456,0,0,1,.153-.061.247.247,0,0,0,.138-.046c.015,0,.015-.015.031-.031s.031-.031.046-.031a.029.029,0,0,1,.046,0,.13.13,0,0,0,.107,0,.084.084,0,0,0,.061-.092c0-.015,0-.015.015-.031h.046v.061a1.206,1.206,0,0,0,.75-.26,2.55,2.55,0,0,1,.505-.245v-.015h-.015v-.015h-.031c-.015,0-.015,0-.015.015l-.015.015h-.031a.209.209,0,0,1-.046-.061c.015,0,.015-.015.031,0a.116.116,0,0,0,.061-.031h.031c.015,0,.031.015.046.015a.056.056,0,0,0,.046.015c.015,0,.031,0,.031-.031a.229.229,0,0,0,0-.107c.031.046.046.092.061.107a.047.047,0,0,0,.061,0c.061-.031.122-.077.184-.107a.3.3,0,0,0,.122-.061l.429-.23.015-.015.015-.015a.015.015,0,0,1,.015.015c.015.015.015.015.015.046v.031C583.239,362.264,583.239,362.279,583.223,362.294Zm-4.424,1.684c.015,0,.015-.015.031-.031s.031-.015.031-.031a.057.057,0,0,1,.046.015.053.053,0,0,1-.015.031.336.336,0,0,1-.046.076l-.031-.031C578.815,363.993,578.815,363.993,578.8,363.978Zm.643-.245a.015.015,0,0,1,.015-.015V363.7a.015.015,0,0,1,.015-.015l.015.015.031.031c-.015,0-.015.015-.031.015l-.015.015c0-.015-.015-.015-.031-.031Zm2.036-.888a.048.048,0,0,1,.015-.031l.031.031v.015a.015.015,0,0,1-.015.015c0-.015-.015-.015-.031-.031Zm3.6-2.51a.344.344,0,0,1-.077.168,3.564,3.564,0,0,1-.934.658c-.107.061-.2.122-.306.184a3.32,3.32,0,0,0-.337.23,2.181,2.181,0,0,1-.306.214.818.818,0,0,1-.214.092.8.8,0,0,0-.245.092,1.548,1.548,0,0,1-.459.2c-.092.031-.184.077-.26.107-.122.061-.245.122-.367.2-.107.061-.23.107-.337.168a.274.274,0,0,0-.107.077.36.36,0,0,1-.214.107.708.708,0,0,0-.383.122c-.046.031-.092.046-.138.077-.153.061-.321.138-.475.2a.116.116,0,0,1-.077.031c-.092.031-.168.061-.26.092-.153.061-.306.122-.474.2a.541.541,0,0,1-.26.061.3.3,0,0,1-.107.015c1.01-.536,2.036-1.072,3.077-1.592.015,0,.031-.015.046-.015.536-.276,1.087-.566,1.623-.857a12.681,12.681,0,0,0,1.577-.949C585.091,360.274,585.091,360.3,585.076,360.335Z" transform="translate(-577.008 -359.6)" fill="#ffcf61"/>
            <path id="XMLID_4041_" d="M583.761,384.631l.015-.015a.015.015,0,0,0,.015-.015c-.031.015-.061.015-.092.031Z" transform="translate(-582.598 -380.773)" fill="#ffcf61"/>
            <path id="XMLID_4040_" d="M576.638,386.7a.085.085,0,0,0-.077.031.343.343,0,0,0-.061.077,3.061,3.061,0,0,0,.321-.107h-.184Z" transform="translate(-576.5 -382.552)" fill="#ffcf61"/>
            <path id="XMLID_4039_" d="M596.715,385.146h0c.015-.015,0-.031,0-.046h0l-.015.015v.015A.015.015,0,0,1,596.715,385.146Z" transform="translate(-593.608 -381.197)" fill="#ffcf61"/>
            <path id="XMLID_4038_" d="M592.446,389.2h0c-.015,0-.031.015-.046.015h0l.536-.2V389h-.031a3.19,3.19,0,0,1-.459.2Z" transform="translate(-589.966 -384.5)" fill="#ffcf61"/>
            <path id="XMLID_4037_" d="M596.907,388.261l.122-.046V388.2q-.069.023-.23.092v.015Z" transform="translate(-593.693 -383.822)" fill="#ffcf61"/>
            <path id="XMLID_4036_" d="M596.231,388.915V388.9h0a.053.053,0,0,0-.031.015v.015Z" transform="translate(-593.184 -384.415)" fill="#ffcf61"/>
            <path id="XMLID_4035_" d="M591.9,390.6Z" transform="translate(-589.543 -385.855)" fill="#ffcf61"/>
        </g>
    </g>
</svg>
